<svg aria-hidden="true" style="position: absolute; width: 0; height: 0; overflow: hidden;" version="1.1" xmlns="http://www.w3.org/2000/svg" xmlns:xlink="http://www.w3.org/1999/xlink">
<defs>
<symbol id="icon-discord" viewBox="0 0 32 32">
<path fill="#7289da" style="fill: var(--color1, #7289da)" d="M26.963 0c1.875 0 3.387 1.516 3.476 3.3v28.7l-3.569-3.031-1.96-1.784-2.139-1.864 0.893 2.94h-18.717c-1.869 0-3.387-1.42-3.387-3.301v-21.653c0-1.784 1.52-3.303 3.393-3.303h22zM18.805 7.577h-0.040l-0.269 0.267c2.764 0.8 4.101 2.049 4.101 2.049-1.781-0.891-3.387-1.336-4.992-1.516-1.16-0.18-2.32-0.085-3.3 0h-0.267c-0.627 0-1.96 0.267-3.747 0.98-0.623 0.271-0.98 0.448-0.98 0.448s1.336-1.336 4.28-2.049l-0.18-0.18c0 0-2.229-0.085-4.636 1.693 0 0-2.407 4.192-2.407 9.36 0 0 1.333 2.32 4.991 2.408 0 0 0.533-0.711 1.073-1.336-2.053-0.624-2.853-1.872-2.853-1.872s0.179 0.088 0.447 0.267h0.080c0.040 0 0.059 0.020 0.080 0.040v0.008c0.021 0.021 0.040 0.040 0.080 0.040 0.44 0.181 0.88 0.36 1.24 0.533 0.621 0.269 1.42 0.537 2.4 0.715 1.24 0.18 2.661 0.267 4.28 0 0.8-0.18 1.6-0.356 2.4-0.713 0.52-0.267 1.16-0.533 1.863-0.983 0 0-0.8 1.248-2.94 1.872 0.44 0.621 1.060 1.333 1.060 1.333 3.659-0.080 5.080-2.4 5.16-2.301 0-5.16-2.42-9.36-2.42-9.36-2.18-1.619-4.22-1.68-4.58-1.68zM19.029 13.461c0.937 0 1.693 0.8 1.693 1.78 0 0.987-0.76 1.787-1.693 1.787s-1.693-0.8-1.693-1.779c0.003-0.987 0.764-1.784 1.693-1.788zM12.972 13.461c0.933 0 1.688 0.8 1.688 1.78 0 0.987-0.76 1.787-1.693 1.787s-1.693-0.8-1.693-1.779c0-0.987 0.76-1.784 1.699-1.788z"></path>
</symbol>
<symbol id="icon-edit" viewBox="0 0 20 20">
<path d="M17.561 2.439c-1.442-1.443-2.525-1.227-2.525-1.227l-12.826 12.825-1.010 4.762 4.763-1.010 12.826-12.823c-0.001 0 0.216-1.083-1.228-2.527zM5.68 17.217l-1.624 0.35c-0.156-0.293-0.345-0.586-0.69-0.932s-0.639-0.533-0.932-0.691l0.35-1.623 0.47-0.469c0 0 0.883 0.018 1.881 1.016 0.997 0.996 1.016 1.881 1.016 1.881l-0.471 0.468z"></path>
</symbol>
<symbol id="icon-share" viewBox="0 0 20 20">
<path d="M15 13.442c-0.633 0-1.204 0.246-1.637 0.642l-5.938-3.463c0.046-0.188 0.075-0.384 0.075-0.584s-0.029-0.395-0.075-0.583l5.875-3.429c0.446 0.417 1.042 0.675 1.7 0.675 1.379 0 2.5-1.121 2.5-2.5s-1.121-2.5-2.5-2.5-2.5 1.121-2.5 2.5c0 0.2 0.029 0.396 0.075 0.583l-5.875 3.429c-0.446-0.416-1.042-0.675-1.7-0.675-1.379 0-2.5 1.121-2.5 2.5s1.121 2.5 2.5 2.5c0.658 0 1.254-0.258 1.7-0.675l5.938 3.463c-0.042 0.175-0.067 0.358-0.067 0.546 0 1.342 1.087 2.429 2.429 2.429s2.429-1.088 2.429-2.429-1.087-2.429-2.429-2.429z"></path>
</symbol>
<symbol id="icon-whatsapp" viewBox="0 0 32 32">
<path d="M27.281 4.65c-2.994-3-6.975-4.65-11.219-4.65-8.738 0-15.85 7.112-15.85 15.856 0 2.794 0.731 5.525 2.119 7.925l-2.25 8.219 8.406-2.206c2.319 1.262 4.925 1.931 7.575 1.931h0.006c0 0 0 0 0 0 8.738 0 15.856-7.113 15.856-15.856 0-4.238-1.65-8.219-4.644-11.219zM16.069 29.050v0c-2.369 0-4.688-0.637-6.713-1.837l-0.481-0.288-4.987 1.306 1.331-4.863-0.313-0.5c-1.325-2.094-2.019-4.519-2.019-7.012 0-7.269 5.912-13.181 13.188-13.181 3.519 0 6.831 1.375 9.319 3.862 2.488 2.494 3.856 5.8 3.856 9.325-0.006 7.275-5.919 13.188-13.181 13.188zM23.294 19.175c-0.394-0.2-2.344-1.156-2.706-1.288s-0.625-0.2-0.894 0.2c-0.262 0.394-1.025 1.288-1.256 1.556-0.231 0.262-0.462 0.3-0.856 0.1s-1.675-0.619-3.188-1.969c-1.175-1.050-1.975-2.35-2.206-2.744s-0.025-0.613 0.175-0.806c0.181-0.175 0.394-0.463 0.594-0.694s0.262-0.394 0.394-0.662c0.131-0.262 0.069-0.494-0.031-0.694s-0.894-2.15-1.219-2.944c-0.319-0.775-0.65-0.669-0.894-0.681-0.231-0.012-0.494-0.012-0.756-0.012s-0.694 0.1-1.056 0.494c-0.363 0.394-1.387 1.356-1.387 3.306s1.419 3.831 1.619 4.1c0.2 0.262 2.794 4.269 6.769 5.981 0.944 0.406 1.681 0.65 2.256 0.837 0.95 0.3 1.813 0.256 2.494 0.156 0.762-0.113 2.344-0.956 2.675-1.881s0.331-1.719 0.231-1.881c-0.094-0.175-0.356-0.275-0.756-0.475z"></path>
</symbol>
<symbol id="icon-reddit" viewBox="0 0 32 32">
<path d="M8 20c0-1.105 0.895-2 2-2s2 0.895 2 2c0 1.105-0.895 2-2 2s-2-0.895-2-2zM20 20c0-1.105 0.895-2 2-2s2 0.895 2 2c0 1.105-0.895 2-2 2s-2-0.895-2-2zM20.097 24.274c0.515-0.406 1.262-0.317 1.668 0.198s0.317 1.262-0.198 1.668c-1.434 1.13-3.619 1.86-5.567 1.86s-4.133-0.73-5.567-1.86c-0.515-0.406-0.604-1.153-0.198-1.668s1.153-0.604 1.668-0.198c0.826 0.651 2.46 1.351 4.097 1.351s3.271-0.7 4.097-1.351zM32 16c0-2.209-1.791-4-4-4-1.504 0-2.812 0.83-3.495 2.057-2.056-1.125-4.561-1.851-7.29-2.019l2.387-5.36 4.569 1.319c0.411 1.167 1.522 2.004 2.83 2.004 1.657 0 3-1.343 3-3s-1.343-3-3-3c-1.142 0-2.136 0.639-2.642 1.579l-5.091-1.47c-0.57-0.164-1.173 0.116-1.414 0.658l-3.243 7.282c-2.661 0.187-5.102 0.907-7.114 2.007-0.683-1.227-1.993-2.056-3.496-2.056-2.209 0-4 1.791-4 4 0 1.635 0.981 3.039 2.387 3.659-0.252 0.751-0.387 1.535-0.387 2.341 0 5.523 6.268 10 14 10s14-4.477 14-10c0-0.806-0.134-1.589-0.387-2.34 1.405-0.62 2.387-2.025 2.387-3.66zM27 5.875c0.621 0 1.125 0.504 1.125 1.125s-0.504 1.125-1.125 1.125-1.125-0.504-1.125-1.125 0.504-1.125 1.125-1.125zM2 16c0-1.103 0.897-2 2-2 0.797 0 1.487 0.469 1.808 1.145-1.045 0.793-1.911 1.707-2.552 2.711-0.735-0.296-1.256-1.016-1.256-1.856zM16 29.625c-6.42 0-11.625-3.414-11.625-7.625s5.205-7.625 11.625-7.625c6.42 0 11.625 3.414 11.625 7.625s-5.205 7.625-11.625 7.625zM28.744 17.856c-0.641-1.003-1.507-1.918-2.552-2.711 0.321-0.676 1.011-1.145 1.808-1.145 1.103 0 2 0.897 2 2 0 0.84-0.52 1.56-1.256 1.856z"></path>
</symbol>
<symbol id="icon-cross" viewBox="0 0 20 20">
<path d="M14.348 14.849c-0.469 0.469-1.229 0.469-1.697 0l-2.651-3.030-2.651 3.029c-0.469 0.469-1.229 0.469-1.697 0-0.469-0.469-0.469-1.229 0-1.697l2.758-3.15-2.759-3.152c-0.469-0.469-0.469-1.228 0-1.697s1.228-0.469 1.697 0l2.652 3.031 2.651-3.031c0.469-0.469 1.228-0.469 1.697 0s0.469 1.229 0 1.697l-2.758 3.152 2.758 3.15c0.469 0.469 0.469 1.229 0 1.698z"></path>
</symbol>
<symbol id="icon-star-empty" viewBox="0 0 32 32">
<path d="M32 12.408l-11.056-1.607-4.944-10.018-4.944 10.018-11.056 1.607 8 7.798-1.889 11.011 9.889-5.199 9.889 5.199-1.889-11.011 8-7.798zM16 23.547l-6.983 3.671 1.334-7.776-5.65-5.507 7.808-1.134 3.492-7.075 3.492 7.075 7.807 1.134-5.65 5.507 1.334 7.776-6.983-3.671z"></path>
</symbol>
<symbol id="icon-star-full" viewBox="0 0 32 32">
<path d="M32 12.408l-11.056-1.607-4.944-10.018-4.944 10.018-11.056 1.607 8 7.798-1.889 11.011 9.889-5.199 9.889 5.199-1.889-11.011 8-7.798z"></path>
</symbol>
</defs>
</svg>

